<svg id="kity_svg_6" xmlns="http://www.w3.org/2000/svg" xmlns:xlink="http://www.w3.org/1999/xlink" version="1.1" width="693" height="540" style="background: rgb(251, 251, 251); visibility: visible;" viewBox="0 0 693 540"><defs id="kity_defs_7"><linearGradient id="kity_linearGradient_17" x1="0" y1="0" x2="0" y2="1"><stop id="kity_stop_18" offset="0" stop-color="rgb(255, 255, 255)"></stop><stop id="kity_stop_19" offset="1" stop-color="rgb(204, 204, 204)"></stop></linearGradient><marker id="kity_marker_2" orient="auto" refX="6" refY="0" viewBox="-7 -7 14 14" markerWidth="7" markerHeight="7" markerUnits="userSpaceOnUse"><path id="kity_path_3" fill="rgb(115, 161, 191)" stroke="none" d="M6,0A6,6,0,1,1,-6,0A6,6,0,1,1,6,0"></path></marker></defs><g id="kity_g_8"><g id="minder1" text-rendering="optimize-speed"><g id="minder_connect_group1"><path id="kity_path_231" fill="none" stroke="rgb(115, 161, 191)" stroke-width="1" d="M99,283.5A91.5,135,0,0,1,190.5,148.5"></path><path id="kity_path_343" fill="none" stroke="rgb(115, 161, 191)" stroke-width="1" d="M99,283.5A91.5,135,0,0,0,190.5,418.5"></path><path id="kity_path_618" fill="none" stroke="rgb(115, 161, 191)" stroke-width="1" d="M337.5,31.5C357.5,31.5,357.5,31.5,377.5,31.5"></path><path id="kity_path_619" fill="none" stroke="rgb(115, 161, 191)" stroke-width="1" d="M251.5,148.5C271.5,148.5,271.5,31.5,291.5,31.5"></path><path id="kity_path_620" fill="none" stroke="rgb(115, 161, 191)" stroke-width="1" d="M336.5,83.5C356.5,83.5,356.5,83.5,376.5,83.5"></path><path id="kity_path_621" fill="none" stroke="rgb(115, 161, 191)" stroke-width="1" d="M251.5,148.5C271.5,148.5,271.5,83.5,291.5,83.5"></path><path id="kity_path_622" fill="none" stroke="rgb(115, 161, 191)" stroke-width="1" d="M336.5,135.5C356.5,135.5,356.5,135.5,376.5,135.5"></path><path id="kity_path_623" fill="none" stroke="rgb(115, 161, 191)" stroke-width="1" d="M251.5,148.5C271.5,148.5,271.5,135.5,291.5,135.5"></path><path id="kity_path_624" fill="none" stroke="rgb(115, 161, 191)" stroke-width="1" d="M384.5,187.5C404.5,187.5,404.5,187.5,424.5,187.5"></path><path id="kity_path_625" fill="none" stroke="rgb(115, 161, 191)" stroke-width="1" d="M251.5,148.5C271.5,148.5,271.5,187.5,291.5,187.5"></path><path id="kity_path_627" fill="none" stroke="rgb(115, 161, 191)" stroke-width="1" d="M481.5,239.5C501.5,239.5,501.5,239.5,521.5,239.5"></path><path id="kity_path_628" fill="none" stroke="rgb(115, 161, 191)" stroke-width="1" d="M396.5,265.5C416.5,265.5,416.5,239.5,436.5,239.5"></path><path id="kity_path_629" fill="none" stroke="rgb(115, 161, 191)" stroke-width="1" d="M481.5,291.5C501.5,291.5,501.5,291.5,521.5,291.5"></path><path id="kity_path_630" fill="none" stroke="rgb(115, 161, 191)" stroke-width="1" d="M396.5,265.5C416.5,265.5,416.5,291.5,436.5,291.5"></path><path id="kity_path_631" fill="none" stroke="rgb(115, 161, 191)" stroke-width="1" d="M251.5,148.5C271.5,148.5,271.5,265.5,291.5,265.5"></path><path id="kity_path_632" fill="none" stroke="rgb(115, 161, 191)" stroke-width="1" d="M337.5,353.5C357.5,353.5,357.5,353.5,377.5,353.5"></path><path id="kity_path_633" fill="none" stroke="rgb(115, 161, 191)" stroke-width="1" d="M251.5,418.5C271.5,418.5,271.5,353.5,291.5,353.5"></path><path id="kity_path_634" fill="none" stroke="rgb(115, 161, 191)" stroke-width="1" d="M384.5,405.5C404.5,405.5,404.5,405.5,424.5,405.5"></path><path id="kity_path_635" fill="none" stroke="rgb(115, 161, 191)" stroke-width="1" d="M251.5,418.5C271.5,418.5,271.5,405.5,291.5,405.5"></path><path id="kity_path_638" fill="none" stroke="rgb(115, 161, 191)" stroke-width="1" d="M481.5,457.5C501.5,457.5,501.5,457.5,521.5,457.5"></path><path id="kity_path_639" fill="none" stroke="rgb(115, 161, 191)" stroke-width="1" d="M396.5,483.5C416.5,483.5,416.5,457.5,436.5,457.5"></path><path id="kity_path_640" fill="none" stroke="rgb(115, 161, 191)" stroke-width="1" d="M481.5,509.5C501.5,509.5,501.5,509.5,521.5,509.5"></path><path id="kity_path_641" fill="none" stroke="rgb(115, 161, 191)" stroke-width="1" d="M396.5,483.5C416.5,483.5,416.5,509.5,436.5,509.5"></path><path id="kity_path_642" fill="none" stroke="rgb(115, 161, 191)" stroke-width="1" d="M251.5,418.5C271.5,418.5,271.5,483.5,291.5,483.5"></path></g><g id="minder_node1"><path id="node_outline1" fill="rgb(115, 161, 191)" stroke="rgb(57, 80, 96)" d="M25.5,263.5h147a5,5,0,0,1,5,5v30a5,5,0,0,1,-5,5h-147a5,5,0,0,1,-5,-5v-30a5,5,0,0,1,5,-5z" stroke-width="3"></path><g id="node_text1" fill="white"><text id="kity_text_22" text-rendering="inherit" font-size="16" dy=".8em" y="273.09999990463257" x="44.5">曲线父类Curve</text></g></g><g id="kity_g_14" display="none"><path id="kity_path_15" fill="rgba(0, 92, 153, 0.5)" stroke="none" d="M396.5,232.5h93v15h-93z"></path><path id="kity_path_16" fill="none" stroke="rgb(0, 76, 128)" d="M396.5,247.5L489.5,247.5" stroke-width="1"></path></g><g id="minder_node36" opacity="1"><g id="node_expander35" style="cursor: pointer;"><path id="kity_path_323" fill="white" stroke="gray" d="M191.5,148.5A6,6,0,1,1,179.5,148.5A6,6,0,1,1,191.5,148.5"></path><path id="kity_path_324" fill="none" stroke="gray" d="M181,148.5L190,148.5"></path></g><path id="node_outline36" fill="rgb(238, 243, 246)" stroke="rgb(115, 161, 191)" d="M195.5,135.5h53a3,3,0,0,1,3,3v20a3,3,0,0,1,-3,3h-53a3,3,0,0,1,-3,-3v-20a3,3,0,0,1,3,-3z" stroke-width="1"></path><g id="node_text36" fill="black"><text id="kity_text_263" text-rendering="inherit" font-size="14" dy=".8em" y="139.40000009536743" x="212.5">2D</text></g></g><g id="minder_node41" opacity="1"><g id="node_expander40" style="cursor: pointer;"><path id="kity_path_348" fill="white" stroke="gray" d="M191.5,418.5A6,6,0,1,1,179.5,418.5A6,6,0,1,1,191.5,418.5"></path><path id="kity_path_349" fill="none" stroke="gray" d="M181,418.5L190,418.5"></path></g><path id="node_outline41" fill="rgb(238, 243, 246)" stroke="rgb(115, 161, 191)" d="M195.5,405.5h53a3,3,0,0,1,3,3v20a3,3,0,0,1,-3,3h-53a3,3,0,0,1,-3,-3v-20a3,3,0,0,1,3,-3z" stroke-width="1"></path><g id="node_text41" fill="black"><text id="kity_text_345" text-rendering="inherit" font-size="14" dy=".8em" y="409.40000009536743" x="212.5">3D</text></g></g><g id="kity_g_12" display="none"><path id="kity_path_13" fill="none" stroke="rgb(66, 94, 112)" d="M401.5,252.5h83a5,5,0,0,1,5,5v12a5,5,0,0,1,-5,5h-83a5,5,0,0,1,-5,-5v-12a5,5,0,0,1,5,-5z" stroke-width="5"></path></g><g id="minder_node42"><g id="node_expander41" style="cursor: pointer;" display="none"><path id="kity_path_356" fill="white" stroke="gray" d="M377.5,31.5A6,6,0,1,1,365.5,31.5A6,6,0,1,1,377.5,31.5"></path><path id="kity_path_357" fill="none" stroke="gray"></path></g><path id="node_outline42" fill="none" stroke="none" d="M382.5,20.5h67a5,5,0,0,1,5,5v12a5,5,0,0,1,-5,5h-67a5,5,0,0,1,-5,-5v-12a5,5,0,0,1,5,-5z" stroke-width="3"></path><g id="node_text42" fill="black"><text id="kity_text_353" text-rendering="inherit" font-size="12" dy=".8em" y="23.700000047683716" x="387.5">LineCurve</text></g></g><g id="minder_node24" opacity="1"><g id="node_expander23" style="cursor: pointer;"><path id="kity_path_287" fill="white" stroke="gray" d="M291.5,31.5A6,6,0,1,1,279.5,31.5A6,6,0,1,1,291.5,31.5"></path><path id="kity_path_288" fill="none" stroke="gray" d="M281,31.5L290,31.5"></path></g><path id="node_outline24" fill="none" stroke="none" d="M296.5,20.5h36a5,5,0,0,1,5,5v12a5,5,0,0,1,-5,5h-36a5,5,0,0,1,-5,-5v-12a5,5,0,0,1,5,-5z" stroke-width="3"></path><g id="node_text24" fill="black"><text id="kity_text_239" text-rendering="inherit" font-size="12" dy=".8em" y="23.700000047683716" x="301.5">直线</text></g></g><g id="minder_node44"><g id="node_expander43" style="cursor: pointer;" display="none"><path id="kity_path_372" fill="white" stroke="gray" d="M376.5,83.5A6,6,0,1,1,364.5,83.5A6,6,0,1,1,376.5,83.5"></path><path id="kity_path_373" fill="none" stroke="gray"></path></g><path id="node_outline44" fill="none" stroke="none" d="M381.5,72.5h64a5,5,0,0,1,5,5v12a5,5,0,0,1,-5,5h-64a5,5,0,0,1,-5,-5v-12a5,5,0,0,1,5,-5z" stroke-width="3"></path><g id="node_text44" fill="black"><text id="kity_text_369" text-rendering="inherit" font-size="12" dy=".8em" y="75.70000004768372" x="386.5">ArcCurve</text></g></g><g id="minder_node43"><g id="node_expander42" style="cursor: pointer;"><path id="kity_path_364" fill="white" stroke="gray" d="M291.5,83.5A6,6,0,1,1,279.5,83.5A6,6,0,1,1,291.5,83.5"></path><path id="kity_path_365" fill="none" stroke="gray" d="M281,83.5L290,83.5"></path></g><path id="node_outline43" fill="none" stroke="none" d="M296.5,72.5h35a5,5,0,0,1,5,5v12a5,5,0,0,1,-5,5h-35a5,5,0,0,1,-5,-5v-12a5,5,0,0,1,5,-5z" stroke-width="3"></path><g id="node_text43" fill="black"><text id="kity_text_361" text-rendering="inherit" font-size="12" dy=".8em" y="75.70000004768372" x="301.5">圆弧</text></g></g><g id="minder_node46"><g id="node_expander45" style="cursor: pointer;" display="none"><path id="kity_path_388" fill="white" stroke="gray" d="M376.5,135.5A6,6,0,1,1,364.5,135.5A6,6,0,1,1,376.5,135.5"></path><path id="kity_path_389" fill="none" stroke="gray"></path></g><path id="node_outline46" fill="none" stroke="none" d="M381.5,124.5h80a5,5,0,0,1,5,5v12a5,5,0,0,1,-5,5h-80a5,5,0,0,1,-5,-5v-12a5,5,0,0,1,5,-5z" stroke-width="3"></path><g id="node_text46" fill="black"><text id="kity_text_385" text-rendering="inherit" font-size="12" dy=".8em" y="127.70000004768372" x="386.5">EllipseCurve</text></g></g><g id="minder_node45"><g id="node_expander44" style="cursor: pointer;"><path id="kity_path_380" fill="white" stroke="gray" d="M291.5,135.5A6,6,0,1,1,279.5,135.5A6,6,0,1,1,291.5,135.5"></path><path id="kity_path_381" fill="none" stroke="gray" d="M281,135.5L290,135.5"></path></g><path id="node_outline45" fill="none" stroke="none" d="M296.5,124.5h35a5,5,0,0,1,5,5v12a5,5,0,0,1,-5,5h-35a5,5,0,0,1,-5,-5v-12a5,5,0,0,1,5,-5z" stroke-width="3"></path><g id="node_text45" fill="black"><text id="kity_text_377" text-rendering="inherit" font-size="12" dy=".8em" y="127.70000004768372" x="301.5">椭圆</text></g></g><g id="minder_node47" opacity="1"><g id="node_expander46" style="cursor: pointer;" display="none"><path id="kity_path_396" fill="white" stroke="gray" d="M424.5,187.5A6,6,0,1,1,412.5,187.5A6,6,0,1,1,424.5,187.5"></path><path id="kity_path_397" fill="none" stroke="gray"></path></g><path id="node_outline47" fill="none" stroke="none" d="M429.5,176.5h79a5,5,0,0,1,5,5v12a5,5,0,0,1,-5,5h-79a5,5,0,0,1,-5,-5v-12a5,5,0,0,1,5,-5z" stroke-width="3"></path><g id="node_text47" fill="black"><text id="kity_text_393" text-rendering="inherit" font-size="12" dy=".8em" y="179.70000004768372" x="434.5">SplineCurve</text></g></g><g id="minder_node48"><g id="node_expander47" style="cursor: pointer;"><path id="kity_path_404" fill="white" stroke="gray" d="M291.5,187.5A6,6,0,1,1,279.5,187.5A6,6,0,1,1,291.5,187.5"></path><path id="kity_path_405" fill="none" stroke="gray" d="M281,187.5L290,187.5"></path></g><path id="node_outline48" fill="none" stroke="none" d="M296.5,176.5h83a5,5,0,0,1,5,5v12a5,5,0,0,1,-5,5h-83a5,5,0,0,1,-5,-5v-12a5,5,0,0,1,5,-5z" stroke-width="3"></path><g id="node_text48" fill="black"><text id="kity_text_401" text-rendering="inherit" font-size="12" dy=".8em" y="179.70000004768372" x="301.5">二维样条曲线</text></g></g><g id="minder_node50"><g id="node_expander49" style="cursor: pointer;" display="none"><path id="kity_path_420" fill="white" stroke="gray" d="M521.5,239.5A6,6,0,1,1,509.5,239.5A6,6,0,1,1,521.5,239.5"></path><path id="kity_path_421" fill="none" stroke="gray"></path></g><path id="node_outline50" fill="none" stroke="none" d="M526.5,228.5h135a5,5,0,0,1,5,5v12a5,5,0,0,1,-5,5h-135a5,5,0,0,1,-5,-5v-12a5,5,0,0,1,5,-5z" stroke-width="3"></path><g id="node_text50" fill="black"><text id="kity_text_417" text-rendering="inherit" font-size="12" dy=".8em" y="231.70000004768372" x="531.5">QuadraticBezierCurve</text></g></g><g id="minder_node49" opacity="1"><g id="node_expander48" style="cursor: pointer;"><path id="kity_path_412" fill="white" stroke="gray" d="M436.5,239.5A6,6,0,1,1,424.5,239.5A6,6,0,1,1,436.5,239.5"></path><path id="kity_path_413" fill="none" stroke="gray" d="M426,239.5L435,239.5"></path></g><path id="node_outline49" fill="none" stroke="none" d="M441.5,228.5h35a5,5,0,0,1,5,5v12a5,5,0,0,1,-5,5h-35a5,5,0,0,1,-5,-5v-12a5,5,0,0,1,5,-5z" stroke-width="3"></path><g id="node_text49" fill="black"><text id="kity_text_409" text-rendering="inherit" font-size="12" dy=".8em" y="231.70000004768372" x="446.5">二次</text></g></g><g id="minder_node55" opacity="1"><g id="node_expander54" style="cursor: pointer;" display="none"><path id="kity_path_460" fill="white" stroke="gray" d="M521.5,291.5A6,6,0,1,1,509.5,291.5A6,6,0,1,1,521.5,291.5"></path><path id="kity_path_461" fill="none" stroke="gray"></path></g><path id="node_outline55" fill="none" stroke="none" d="M526.5,280.5h111a5,5,0,0,1,5,5v12a5,5,0,0,1,-5,5h-111a5,5,0,0,1,-5,-5v-12a5,5,0,0,1,5,-5z" stroke-width="3"></path><g id="node_text55" fill="black"><text id="kity_text_457" text-rendering="inherit" font-size="12" dy=".8em" y="283.7000000476837" x="531.5">CubicBezierCurve</text></g></g><g id="minder_node58"><g id="node_expander57" style="cursor: pointer;"><path id="kity_path_485" fill="white" stroke="gray" d="M436.5,291.5A6,6,0,1,1,424.5,291.5A6,6,0,1,1,436.5,291.5"></path><path id="kity_path_486" fill="none" stroke="gray" d="M426,291.5L435,291.5"></path></g><path id="node_outline58" fill="none" stroke="none" d="M441.5,280.5h35a5,5,0,0,1,5,5v12a5,5,0,0,1,-5,5h-35a5,5,0,0,1,-5,-5v-12a5,5,0,0,1,5,-5z" stroke-width="3"></path><g id="node_text58" fill="black"><text id="kity_text_482" text-rendering="inherit" font-size="12" dy=".8em" y="283.7000000476837" x="446.5">三次</text></g></g><g id="minder_node57" opacity="1"><g id="node_expander56" style="cursor: pointer;"><path id="kity_path_476" fill="white" stroke="gray" d="M291.5,265.5A6,6,0,1,1,279.5,265.5A6,6,0,1,1,291.5,265.5"></path><path id="kity_path_477" fill="none" stroke="gray" d="M281,265.5L290,265.5"></path></g><path id="node_outline57" fill="none" stroke="none" d="M296.5,254.5h95a5,5,0,0,1,5,5v12a5,5,0,0,1,-5,5h-95a5,5,0,0,1,-5,-5v-12a5,5,0,0,1,5,-5z" stroke-width="3"></path><g id="node_text57" fill="black"><text id="kity_text_473" text-rendering="inherit" font-size="12" dy=".8em" y="257.7000000476837" x="301.5">二维贝塞尔曲线</text></g></g><g id="minder_node65"><g id="node_expander64" style="cursor: pointer;" display="none"><path id="kity_path_541" fill="white" stroke="gray" d="M377.5,353.5A6,6,0,1,1,365.5,353.5A6,6,0,1,1,377.5,353.5"></path><path id="kity_path_542" fill="none" stroke="gray"></path></g><path id="node_outline65" fill="none" stroke="none" d="M382.5,342.5h74a5,5,0,0,1,5,5v12a5,5,0,0,1,-5,5h-74a5,5,0,0,1,-5,-5v-12a5,5,0,0,1,5,-5z" stroke-width="3"></path><g id="node_text65" fill="black"><text id="kity_text_538" text-rendering="inherit" font-size="12" dy=".8em" y="345.7000000476837" x="387.5">LineCurve3</text></g></g><g id="minder_node64" opacity="1"><g id="node_expander63" style="cursor: pointer;"><path id="kity_path_535" fill="white" stroke="gray" d="M291.5,353.5A6,6,0,1,1,279.5,353.5A6,6,0,1,1,291.5,353.5"></path><path id="kity_path_536" fill="none" stroke="gray" d="M281,353.5L290,353.5"></path></g><path id="node_outline64" fill="none" stroke="none" d="M296.5,342.5h36a5,5,0,0,1,5,5v12a5,5,0,0,1,-5,5h-36a5,5,0,0,1,-5,-5v-12a5,5,0,0,1,5,-5z" stroke-width="3"></path><g id="node_text64" fill="black"><text id="kity_text_532" text-rendering="inherit" font-size="12" dy=".8em" y="345.7000000476837" x="301.5">直线</text></g></g><g id="minder_node66" opacity="1"><g id="node_expander65" style="cursor: pointer;" display="none"><path id="kity_path_549" fill="white" stroke="gray" d="M424.5,405.5A6,6,0,1,1,412.5,405.5A6,6,0,1,1,424.5,405.5"></path><path id="kity_path_550" fill="none" stroke="gray"></path></g><path id="node_outline66" fill="none" stroke="none" d="M429.5,394.5h121a5,5,0,0,1,5,5v12a5,5,0,0,1,-5,5h-121a5,5,0,0,1,-5,-5v-12a5,5,0,0,1,5,-5z" stroke-width="3"></path><g id="node_text66" fill="black"><text id="kity_text_546" text-rendering="inherit" font-size="12" dy=".8em" y="397.7000000476837" x="434.5">CatmullRomCurve3</text></g></g><g id="minder_node67"><g id="node_expander66" style="cursor: pointer;"><path id="kity_path_557" fill="white" stroke="gray" d="M291.5,405.5A6,6,0,1,1,279.5,405.5A6,6,0,1,1,291.5,405.5"></path><path id="kity_path_558" fill="none" stroke="gray" d="M281,405.5L290,405.5"></path></g><path id="node_outline67" fill="none" stroke="none" d="M296.5,394.5h83a5,5,0,0,1,5,5v12a5,5,0,0,1,-5,5h-83a5,5,0,0,1,-5,-5v-12a5,5,0,0,1,5,-5z" stroke-width="3"></path><g id="node_text67" fill="black"><text id="kity_text_554" text-rendering="inherit" font-size="12" dy=".8em" y="397.7000000476837" x="301.5">三维样条曲线</text></g></g><g id="minder_node61"><g id="node_expander59" style="cursor: pointer;" display="none"><path id="kity_path_516" fill="white" stroke="gray" d="M521.5,457.5A6,6,0,1,1,509.5,457.5A6,6,0,1,1,521.5,457.5"></path><path id="kity_path_517" fill="none" stroke="gray"></path></g><path id="node_outline60" fill="none" stroke="none" d="M526.5,446.5h142a5,5,0,0,1,5,5v12a5,5,0,0,1,-5,5h-142a5,5,0,0,1,-5,-5v-12a5,5,0,0,1,5,-5z" stroke-width="3"></path><g id="node_text60" fill="black"><text id="kity_text_504" text-rendering="inherit" font-size="12" dy=".8em" y="449.7000000476837" x="531.5">QuadraticBezierCurve3</text></g></g><g id="minder_node60"><g id="node_expander60" style="cursor: pointer;"><path id="kity_path_519" fill="white" stroke="gray" d="M436.5,457.5A6,6,0,1,1,424.5,457.5A6,6,0,1,1,436.5,457.5"></path><path id="kity_path_520" fill="none" stroke="gray" d="M426,457.5L435,457.5"></path></g><path id="node_outline61" fill="none" stroke="none" d="M441.5,446.5h35a5,5,0,0,1,5,5v12a5,5,0,0,1,-5,5h-35a5,5,0,0,1,-5,-5v-12a5,5,0,0,1,5,-5z" stroke-width="3"></path><g id="node_text61" fill="black"><text id="kity_text_506" text-rendering="inherit" font-size="12" dy=".8em" y="449.7000000476837" x="446.5">二次</text></g></g><g id="minder_node63"><g id="node_expander61" style="cursor: pointer;" display="none"><path id="kity_path_522" fill="white" stroke="gray" d="M521.5,509.5A6,6,0,1,1,509.5,509.5A6,6,0,1,1,521.5,509.5"></path><path id="kity_path_523" fill="none" stroke="gray"></path></g><path id="node_outline62" fill="none" stroke="none" d="M526.5,498.5h118a5,5,0,0,1,5,5v12a5,5,0,0,1,-5,5h-118a5,5,0,0,1,-5,-5v-12a5,5,0,0,1,5,-5z" stroke-width="3"></path><g id="node_text62" fill="black"><text id="kity_text_508" text-rendering="inherit" font-size="12" dy=".8em" y="501.7000000476837" x="531.5">CubicBezierCurve3</text></g></g><g id="minder_node62"><g id="node_expander62" style="cursor: pointer;"><path id="kity_path_525" fill="white" stroke="gray" d="M436.5,509.5A6,6,0,1,1,424.5,509.5A6,6,0,1,1,436.5,509.5"></path><path id="kity_path_526" fill="none" stroke="gray" d="M426,509.5L435,509.5"></path></g><path id="node_outline63" fill="none" stroke="none" d="M441.5,498.5h35a5,5,0,0,1,5,5v12a5,5,0,0,1,-5,5h-35a5,5,0,0,1,-5,-5v-12a5,5,0,0,1,5,-5z" stroke-width="3"></path><g id="node_text63" fill="black"><text id="kity_text_510" text-rendering="inherit" font-size="12" dy=".8em" y="501.7000000476837" x="446.5">三次</text></g></g><g id="minder_node59"><g id="node_expander58" style="cursor: pointer;"><path id="kity_path_501" fill="white" stroke="gray" d="M291.5,483.5A6,6,0,1,1,279.5,483.5A6,6,0,1,1,291.5,483.5"></path><path id="kity_path_502" fill="none" stroke="gray" d="M281,483.5L290,483.5"></path></g><path id="node_outline59" fill="none" stroke="none" d="M296.5,472.5h95a5,5,0,0,1,5,5v12a5,5,0,0,1,-5,5h-95a5,5,0,0,1,-5,-5v-12a5,5,0,0,1,5,-5z" stroke-width="3"></path><g id="node_text59" fill="black"><text id="kity_text_498" text-rendering="inherit" font-size="12" dy=".8em" y="475.7000000476837" x="301.5">三维贝塞尔曲线</text></g></g></g></g></svg>