<svg id="kity_svg_6" xmlns="http://www.w3.org/2000/svg" xmlns:xlink="http://www.w3.org/1999/xlink" version="1.1" width="623" height="396" style="background: rgb(251, 251, 251); visibility: visible;" viewBox="0 0 623 396"><defs id="kity_defs_7"><linearGradient id="kity_linearGradient_17" x1="0" y1="0" x2="0" y2="1"><stop id="kity_stop_18" offset="0" stop-color="rgb(255, 255, 255)"></stop><stop id="kity_stop_19" offset="1" stop-color="rgb(204, 204, 204)"></stop></linearGradient><marker id="kity_marker_2" orient="auto" refX="6" refY="0" viewBox="-7 -7 14 14" markerWidth="7" markerHeight="7" markerUnits="userSpaceOnUse"><path id="kity_path_3" fill="rgb(115, 161, 191)" stroke="none" d="M6,0A6,6,0,1,1,-6,0A6,6,0,1,1,6,0"></path></marker></defs><g id="kity_g_8"><g id="minder1" text-rendering="optimize-speed"><g id="minder_connect_group1"><path id="kity_path_39" fill="none" stroke="rgb(115, 161, 191)" stroke-width="1" d="M109.00000613182783,196.50000355392694A162.5,163,0,0,1,271.50000613182783,33.500003553926945"></path><path id="kity_path_47" fill="none" stroke="rgb(115, 161, 191)" stroke-width="1" d="M109.00000613182783,196.50000355392694A162.5,97,0,0,1,271.50000613182783,99.50000355392694"></path><path id="kity_path_55" fill="none" stroke="rgb(115, 161, 191)" stroke-width="1" d="M109.00000613182783,196.50000355392694A162.5,31,0,0,1,271.50000613182783,165.50000355392694"></path><path id="kity_path_63" fill="none" stroke="rgb(115, 161, 191)" stroke-width="1" d="M109.00000613182783,196.50000355392694A162.5,35,0,0,0,271.50000613182783,231.50000355392694"></path><path id="kity_path_113" fill="none" stroke="rgb(115, 161, 191)" stroke-width="1" d="M109.00000613182783,196.50000355392694A162.5,101,0,0,0,271.50000613182783,297.50000355392694"></path><path id="kity_path_129" fill="none" stroke="rgb(115, 161, 191)" stroke-width="1" d="M109.00000613182783,196.50000355392694A162.5,167,0,0,0,271.50000613182783,363.50000355392694"></path><path id="kity_path_144" fill="none" stroke="rgb(115, 161, 191)" stroke-width="1" d="M365.50000613182783,33.500003553926945C385.50000613182783,33.500003553926945,385.50000613182783,33.500003553926945,405.50000613182783,33.500003553926945"></path><path id="kity_path_145" fill="none" stroke="rgb(115, 161, 191)" stroke-width="1" d="M346.50000613182783,99.50000355392694C366.50000613182783,99.50000355392694,366.50000613182783,99.50000355392694,386.50000613182783,99.50000355392694"></path><path id="kity_path_146" fill="none" stroke="rgb(115, 161, 191)" stroke-width="1" d="M369.50000613182783,165.50000355392694C389.50000613182783,165.50000355392694,389.50000613182783,165.50000355392694,409.50000613182783,165.50000355392694"></path><path id="kity_path_147" fill="none" stroke="rgb(115, 161, 191)" stroke-width="1" d="M386.50000613182783,231.50000355392694C406.50000613182783,231.50000355392694,406.50000613182783,231.50000355392694,426.50000613182783,231.50000355392694"></path><path id="kity_path_148" fill="none" stroke="rgb(115, 161, 191)" stroke-width="1" d="M412.50000613182783,297.50000355392694C432.50000613182783,297.50000355392694,432.50000613182783,297.50000355392694,452.50000613182783,297.50000355392694"></path><path id="kity_path_149" fill="none" stroke="rgb(115, 161, 191)" stroke-width="1" d="M434.50000613182783,363.50000355392694C454.50000613182783,363.50000355392694,454.50000613182783,363.50000355392694,474.50000613182783,363.50000355392694"></path></g><g id="minder_node1"><path id="node_outline1" fill="rgb(115, 161, 191)" stroke="rgb(115, 161, 191)" d="M25.50000613182783,176.50000355392694h167a5,5,0,0,1,5,5v30a5,5,0,0,1,-5,5h-167a5,5,0,0,1,-5,-5v-30a5,5,0,0,1,5,-5z" stroke-width="3"></path><g id="node_text1" fill="white"><text id="kity_text_22" text-rendering="inherit" font-size="16" dy=".8em" y="186.10000351816416" x="44.50000613182783">Shape的父类Path</text></g></g><g id="kity_g_12" display="none"><path id="kity_path_13" fill="none" stroke="none" d="M44.50000613182783,196.50000355392694h0v0h0z"></path></g><g id="kity_g_14" display="none"><path id="kity_path_15" fill="none" stroke="none" d="M44.50000613182783,196.50000355392694h0v0h0z"></path><path id="kity_path_16" fill="none" stroke="none"></path></g><g id="minder_node3" opacity="1"><g id="node_expander2" style="cursor: pointer;"><path id="kity_path_44" fill="white" stroke="gray" d="M272.5000094398856,33.50000112503767A6,6,0,1,1,260.5000094398856,33.50000112503767A6,6,0,1,1,272.5000094398856,33.50000112503767"></path><path id="kity_path_45" fill="none" stroke="gray" d="M262.0000094398856,33.50000112503767L271.0000094398856,33.50000112503767"></path></g><path id="node_outline3" fill="rgb(238, 243, 246)" stroke="rgb(115, 161, 191)" d="M276.50000984221697,20.50000112503767h86a3,3,0,0,1,3,3v20a3,3,0,0,1,-3,3h-86a3,3,0,0,1,-3,-3v-20a3,3,0,0,1,3,-3z" stroke-width="1"></path><g id="node_text3" fill="black"><text id="kity_text_41" text-rendering="inherit" font-size="14" dy=".8em" y="24.40000109374523" x="293.50000984221697">.lineTo()</text></g></g><g id="minder_node4" opacity="1"><g id="node_expander3" style="cursor: pointer;"><path id="kity_path_52" fill="white" stroke="gray" d="M272.5000094398856,99.50000210851431A6,6,0,1,1,260.5000094398856,99.50000210851431A6,6,0,1,1,272.5000094398856,99.50000210851431"></path><path id="kity_path_53" fill="none" stroke="gray" d="M262.0000094398856,99.50000210851431L271.0000094398856,99.50000210851431"></path></g><path id="node_outline4" fill="rgb(238, 243, 246)" stroke="rgb(115, 161, 191)" d="M276.50000984221697,86.50000210851431h67a3,3,0,0,1,3,3v20a3,3,0,0,1,-3,3h-67a3,3,0,0,1,-3,-3v-20a3,3,0,0,1,3,-3z" stroke-width="1"></path><g id="node_text4" fill="black"><text id="kity_text_49" text-rendering="inherit" font-size="14" dy=".8em" y="90.40000207722187" x="293.50000984221697">.arc()</text></g></g><g id="minder_node5" opacity="1"><g id="node_expander4" style="cursor: pointer;"><path id="kity_path_60" fill="white" stroke="gray" d="M272.5000094398856,165.50000309199095A6,6,0,1,1,260.5000094398856,165.50000309199095A6,6,0,1,1,272.5000094398856,165.50000309199095"></path><path id="kity_path_61" fill="none" stroke="gray" d="M262.0000094398856,165.50000309199095L271.0000094398856,165.50000309199095"></path></g><path id="node_outline5" fill="rgb(238, 243, 246)" stroke="rgb(115, 161, 191)" d="M276.50000984221697,152.50000309199095h90a3,3,0,0,1,3,3v20a3,3,0,0,1,-3,3h-90a3,3,0,0,1,-3,-3v-20a3,3,0,0,1,3,-3z" stroke-width="1"></path><g id="node_text5" fill="black"><text id="kity_text_57" text-rendering="inherit" font-size="14" dy=".8em" y="156.4000030606985" x="293.50000984221697">.absarc()</text></g></g><g id="minder_node6" opacity="1"><g id="node_expander5" style="cursor: pointer;"><path id="kity_path_68" fill="white" stroke="gray" d="M272.5000094398856,231.5000040754676A6,6,0,1,1,260.5000094398856,231.5000040754676A6,6,0,1,1,272.5000094398856,231.5000040754676"></path><path id="kity_path_69" fill="none" stroke="gray" d="M262.0000094398856,231.5000040754676L271.0000094398856,231.5000040754676"></path></g><path id="node_outline6" fill="rgb(238, 243, 246)" stroke="rgb(115, 161, 191)" d="M276.50000984221697,218.5000040754676h107a3,3,0,0,1,3,3v20a3,3,0,0,1,-3,3h-107a3,3,0,0,1,-3,-3v-20a3,3,0,0,1,3,-3z" stroke-width="1"></path><g id="node_text6" fill="black"><text id="kity_text_65" text-rendering="inherit" font-size="14" dy=".8em" y="222.40000404417515" x="293.50000984221697">.splineThru</text></g></g><g id="minder_node12" opacity="1"><g id="node_expander11" style="cursor: pointer;"><path id="kity_path_118" fill="white" stroke="gray" d="M272.5000094398856,297.5000050589442A6,6,0,1,1,260.5000094398856,297.5000050589442A6,6,0,1,1,272.5000094398856,297.5000050589442"></path><path id="kity_path_119" fill="none" stroke="gray" d="M262.0000094398856,297.5000050589442L271.0000094398856,297.5000050589442"></path></g><path id="node_outline12" fill="rgb(238, 243, 246)" stroke="rgb(115, 161, 191)" d="M276.50000984221697,284.5000050589442h133a3,3,0,0,1,3,3v20a3,3,0,0,1,-3,3h-133a3,3,0,0,1,-3,-3v-20a3,3,0,0,1,3,-3z" stroke-width="1"></path><g id="node_text12" fill="black"><text id="kity_text_115" text-rendering="inherit" font-size="14" dy=".8em" y="288.4000050276518" x="293.50000984221697">.bezierCurveTo</text></g></g><g id="minder_node14" opacity="1"><g id="node_expander13" style="cursor: pointer;"><path id="kity_path_134" fill="white" stroke="gray" d="M272.5000094398856,363.50000604242086A6,6,0,1,1,260.5000094398856,363.50000604242086A6,6,0,1,1,272.5000094398856,363.50000604242086"></path><path id="kity_path_135" fill="none" stroke="gray" d="M262.0000094398856,363.50000604242086L271.0000094398856,363.50000604242086"></path></g><path id="node_outline14" fill="rgb(238, 243, 246)" stroke="rgb(115, 161, 191)" d="M276.50000984221697,350.50000604242086h155a3,3,0,0,1,3,3v20a3,3,0,0,1,-3,3h-155a3,3,0,0,1,-3,-3v-20a3,3,0,0,1,3,-3z" stroke-width="1"></path><g id="node_text14" fill="black"><text id="kity_text_131" text-rendering="inherit" font-size="14" dy=".8em" y="354.4000060111284" x="293.50000984221697">.quadraticCurveTo</text></g></g><g id="minder_node8"><g id="node_expander7" style="cursor: pointer;" display="none"><path id="kity_path_85" fill="white" stroke="gray" d="M405.50001142174006,33.50000112503767A6,6,0,1,1,393.50001142174006,33.50000112503767A6,6,0,1,1,405.50001142174006,33.50000112503767"></path><path id="kity_path_86" fill="none" stroke="gray"></path></g><path id="node_outline8" fill="none" stroke="none" d="M410.50001166015863,22.50000112503767h36a5,5,0,0,1,5,5v12a5,5,0,0,1,-5,5h-36a5,5,0,0,1,-5,-5v-12a5,5,0,0,1,5,-5z" stroke-width="3"></path><g id="node_text8" fill="black"><text id="kity_text_82" text-rendering="inherit" font-size="12" dy=".8em" y="25.70000109821558" x="415.50001166015863">直线</text></g></g><g id="minder_node9"><g id="node_expander8" style="cursor: pointer;" display="none"><path id="kity_path_93" fill="white" stroke="gray" d="M386.500011138618,99.50000210851431A6,6,0,1,1,374.500011138618,99.50000210851431A6,6,0,1,1,386.500011138618,99.50000210851431"></path><path id="kity_path_94" fill="none" stroke="gray"></path></g><path id="node_outline9" fill="none" stroke="none" d="M391.50001137703657,88.50000210851431h60a5,5,0,0,1,5,5v12a5,5,0,0,1,-5,5h-60a5,5,0,0,1,-5,-5v-12a5,5,0,0,1,5,-5z" stroke-width="3"></path><g id="node_text9" fill="black"><text id="kity_text_90" text-rendering="inherit" font-size="12" dy=".8em" y="91.70000208169222" x="396.50001137703657">相对圆弧</text></g></g><g id="minder_node10"><g id="node_expander9" style="cursor: pointer;" display="none"><path id="kity_path_102" fill="white" stroke="gray" d="M409.5000114813447,165.50000309199095A6,6,0,1,1,397.5000114813447,165.50000309199095A6,6,0,1,1,409.5000114813447,165.50000309199095"></path><path id="kity_path_103" fill="none" stroke="gray"></path></g><path id="node_outline10" fill="none" stroke="none" d="M414.5000117197633,154.50000309199095h60a5,5,0,0,1,5,5v12a5,5,0,0,1,-5,5h-60a5,5,0,0,1,-5,-5v-12a5,5,0,0,1,5,-5z" stroke-width="3"></path><g id="node_text10" fill="black"><text id="kity_text_99" text-rendering="inherit" font-size="12" dy=".8em" y="157.70000306516886" x="419.5000117197633">绝对圆弧</text></g></g><g id="minder_node11"><g id="node_expander10" style="cursor: pointer;" display="none"><path id="kity_path_110" fill="white" stroke="gray" d="M426.50001173466444,231.5000040754676A6,6,0,1,1,414.50001173466444,231.5000040754676A6,6,0,1,1,426.50001173466444,231.5000040754676"></path><path id="kity_path_111" fill="none" stroke="gray"></path></g><path id="node_outline11" fill="none" stroke="none" d="M431.500011973083,220.5000040754676h83a5,5,0,0,1,5,5v12a5,5,0,0,1,-5,5h-83a5,5,0,0,1,-5,-5v-12a5,5,0,0,1,5,-5z" stroke-width="3"></path><g id="node_text11" fill="black"><text id="kity_text_107" text-rendering="inherit" font-size="12" dy=".8em" y="223.7000040486455" x="436.500011973083">二维样条曲线</text></g></g><g id="minder_node13"><g id="node_expander12" style="cursor: pointer;" display="none"><path id="kity_path_126" fill="white" stroke="gray" d="M452.50001212209463,297.5000050589442A6,6,0,1,1,440.50001212209463,297.5000050589442A6,6,0,1,1,452.50001212209463,297.5000050589442"></path><path id="kity_path_127" fill="none" stroke="gray"></path></g><path id="node_outline13" fill="none" stroke="none" d="M457.5000123605132,286.5000050589442h119a5,5,0,0,1,5,5v12a5,5,0,0,1,-5,5h-119a5,5,0,0,1,-5,-5v-12a5,5,0,0,1,5,-5z" stroke-width="3"></path><g id="node_text13" fill="black"><text id="kity_text_123" text-rendering="inherit" font-size="12" dy=".8em" y="289.70000503212214" x="462.5000123605132">二维三次贝塞尔曲线</text></g></g><g id="minder_node15"><g id="node_expander14" style="cursor: pointer;" display="none"><path id="kity_path_142" fill="white" stroke="gray" d="M474.5000124499202,363.50000604242086A6,6,0,1,1,462.5000124499202,363.50000604242086A6,6,0,1,1,474.5000124499202,363.50000604242086"></path><path id="kity_path_143" fill="none" stroke="gray"></path></g><path id="node_outline15" fill="none" stroke="none" d="M479.50001268833876,352.50000604242086h119a5,5,0,0,1,5,5v12a5,5,0,0,1,-5,5h-119a5,5,0,0,1,-5,-5v-12a5,5,0,0,1,5,-5z" stroke-width="3"></path><g id="node_text15" fill="black"><text id="kity_text_139" text-rendering="inherit" font-size="12" dy=".8em" y="355.7000060155988" x="484.50001268833876">二维二次贝塞尔曲线</text></g></g></g></g></svg>